<svg xmlns="http://www.w3.org/2000/svg" viewBox="0 0 16 16"><path d="M8 .5C3.9.5.5 3.9.5 8s3.4 7.5 7.5 7.5 7.5-3.4 7.5-7.5S12.1.5 8 .5zm3.8 7.8c0 .6-.2 1.1-.6 1.5-.4.4-.9.6-1.5.6s-1.1-.2-1.5-.6c-.4.4-.9.6-1.5.6s-1.1-.2-1.6-.6c-.6-.5-.9-1-.9-1.5V6.2h1.3v2.2c0 .2.1.4.3.6.2.1.4.2.6.2.3 0 .5-.1.6-.3.2-.2.3-.4.3-.6V6.2h1.3v2.1c0 .3.1.5.3.6.1.1.2.2.3.2.1 0 .2.1.4.1.1 0 .3 0 .4-.1.1 0 .2-.1.3-.2.2-.2.3-.4.3-.6V6.2h1.3v2.1z" fill="#013b89"/><path d="M10.5 8.3c0 .3-.1.5-.3.6-.1.1-.2.2-.3.2-.1 0-.2.1-.4.1s-.3 0-.4-.1l-.2-.2c-.2-.1-.3-.4-.3-.6V6.2H7.4v2.1c0 .2-.1.5-.3.6-.2.2-.4.3-.7.3-.2 0-.4-.1-.6-.3-.2-.1-.3-.3-.3-.6V6.2H4.2v2.1c0 .6.2 1.1.6 1.5.4.4.9.6 1.6.6s1.2-.2 1.6-.6c.4.4.9.6 1.5.6s1.1-.2 1.5-.6c.4-.4.6-.9.6-1.5V6.2h-1.3v2.1h.2z" fill="#f7f7f7"/></svg>