<?xml version="1.0" standalone="no"?>
<!DOCTYPE svg PUBLIC "-//W3C//DTD SVG 20010904//EN"
 "http://www.w3.org/TR/2001/REC-SVG-20010904/DTD/svg10.dtd">
<svg version="1.0" xmlns="http://www.w3.org/2000/svg"
 width="64.000000pt" height="64.000000pt" viewBox="0 0 64.000000 64.000000"
 preserveAspectRatio="xMidYMid meet">
<metadata>
Created by potrace 1.11, written by Peter Selinger 2001-2013
</metadata>
<g transform="translate(0.000000,64.000000) scale(0.100000,-0.100000)"
fill="#000000" stroke="none">
<path d="M110 364 c0 -52 5 -85 16 -104 34 -56 105 -76 164 -45 27 14 33 14
60 0 53 -27 98 -20 141 24 39 39 39 39 39 120 l0 81 -35 0 c-38 0 -40 -7 -35
-98 2 -39 -23 -72 -55 -72 -36 0 -49 26 -50 99 l0 66 -35 0 -35 0 -2 -70 c-1
-53 -5 -72 -19 -82 -50 -37 -84 0 -84 90 l0 67 -35 0 -35 0 0 -76z"/>
</g>
</svg>
