<?xml version="1.0" encoding="utf-8"?>
<!-- Generator: Adobe Illustrator 22.1.0, SVG Export Plug-In . SVG Version: 6.00 Build 0)  -->
<svg version="1.1" id="white_1_" xmlns="http://www.w3.org/2000/svg" xmlns:xlink="http://www.w3.org/1999/xlink" x="0px" y="0px"
	 viewBox="0 0 16 16" style="enable-background:new 0 0 16 16;" xml:space="preserve">
<style type="text/css">
	.st0{fill:#013B89;}
	.st1{fill:#F7F7F7;}
</style>
<g>
	<path class="st0" d="M8,0.5C3.9,0.5,0.5,3.9,0.5,8c0,4.1,3.4,7.5,7.5,7.5s7.5-3.4,7.5-7.5C15.5,3.9,12.1,0.5,8,0.5z M11.8,8.3
		c0,0.6-0.2,1.1-0.6,1.5c-0.4,0.4-0.9,0.6-1.5,0.6c-0.6,0-1.1-0.2-1.5-0.6l0,0l0,0c-0.4,0.4-0.9,0.6-1.5,0.6s-1.1-0.2-1.6-0.6
		C4.5,9.3,4.2,8.8,4.2,8.3V6.2h1.3v2.2c0,0.2,0.1,0.4,0.3,0.6C6,9.1,6.2,9.2,6.4,9.2c0.3,0,0.5-0.1,0.6-0.3c0.2-0.2,0.3-0.4,0.3-0.6
		V6.2h1.3v2.1c0,0.3,0.1,0.5,0.3,0.6C9,9,9.1,9.1,9.2,9.1c0.1,0,0.2,0.1,0.4,0.1c0.1,0,0.3,0,0.4-0.1c0.1,0,0.2-0.1,0.3-0.2
		c0.2-0.2,0.3-0.4,0.3-0.6V6.2h1.3V8.3z"/>
	<path class="st1" d="M10.5,8.3c0,0.3-0.1,0.5-0.3,0.6C10.1,9,10,9.1,9.9,9.1c-0.1,0-0.2,0.1-0.4,0.1s-0.3,0-0.4-0.1
		C9.1,9.1,9,9,8.9,8.9C8.7,8.8,8.6,8.5,8.6,8.3V6.2H7.4v2.1c0,0.2-0.1,0.5-0.3,0.6C6.9,9.1,6.7,9.2,6.4,9.2C6.2,9.2,6,9.1,5.8,8.9
		C5.6,8.8,5.5,8.6,5.5,8.3V6.2H4.2v2.1c0,0.6,0.2,1.1,0.6,1.5c0.4,0.4,0.9,0.6,1.6,0.6S7.6,10.2,8,9.8l0,0l0,0
		c0.4,0.4,0.9,0.6,1.5,0.6c0.6,0,1.1-0.2,1.5-0.6c0.4-0.4,0.6-0.9,0.6-1.5V6.2h-1.3V8.3L10.5,8.3z"/>
</g>
</svg>
